# File created by Blade
# Date/Time:  Thu Sep 25 19:04:16 2014
# Frame Rate: 120.000 fps
#------------------------------------------------------
:FULLY-SPECIFIED
:DEGREES
1404
root 5.888195 19.181504 -8.128491 35.201450 31.767964 -19.418159
Spine 16.480809 -12.357141 -39.881470
Head -39.050319 -1.029829 17.458135
LeftShoulder -1.144263 9.142414 27.825673
LeftArm 16.213042 10.082092 -44.086757
LeftForeArm 2.652641 -0.000000 21.522029
LeftHand -39.315136 0.000000 48.675812
LeftHandThumb1 -26.253704 0.000000 33.147579
RightShoulder -21.377442 17.734708 -42.625030
RightArm -15.936138 11.294152 18.329337
RightForeArm -14.000457 -0.000000 14.623056
RightHand -16.670149 -0.000000 -23.319721
RightHandThumb1 -24.326973 -0.000000 -32.862282
LeftUpLeg -125.067518 41.772233 3.283305
LeftLeg 96.971657 -0.000000 -0.000000
LeftFoot -18.089586 -21.206755 -17.067365
LeftToeBase 0.169593 -0.000000 -0.000000
RightUpLeg -22.949615 -49.777170 -12.184573
RightLeg 1.404901 -0.000000 -0.000000
RightFoot 4.293576 -13.854000 41.449073
RightToeBase 4.981429 -0.000000 -0.000000
1405
root 5.884292 19.164779 -8.097562 34.963070 31.891765 -19.633615
Spine 16.522690 -12.315076 -40.017260
Head -38.910985 -1.642276 17.109211
LeftShoulder -1.189520 9.043242 27.796690
LeftArm 16.016429 9.677384 -44.261722
LeftForeArm 2.938342 -0.000000 21.609140
LeftHand -39.321835 -0.000000 48.604973
LeftHandThumb1 -26.253704 0.000000 33.147579
RightShoulder -21.412062 17.734102 -42.955493
RightArm -16.065743 11.368257 17.953574
RightForeArm -13.989946 -0.000000 14.752924
RightHand -16.778852 -0.000000 -23.673601
RightHandThumb1 -24.326973 -0.000000 -32.862282
LeftUpLeg -125.070412 41.889050 3.447790
LeftLeg 97.049441 -0.000000 -0.000000
LeftFoot -18.045459 -21.333613 -16.864423
LeftToeBase -0.001810 -0.000000 0.000000
RightUpLeg -22.605321 -49.555949 -12.277053
RightLeg 1.488658 -0.000000 -0.000000
RightFoot 4.075413 -13.911889 41.590345
RightToeBase 5.019742 -0.000000 -0.000000
1406
root 5.881084 19.149253 -8.067621 34.720579 31.972166 -19.848239
Spine 16.524261 -12.228455 -40.188580
Head -38.675730 -2.261739 16.844605
LeftShoulder -1.295270 9.090257 27.808489
LeftArm 16.010395 9.245767 -44.357614
LeftForeArm 3.366550 -0.000000 21.637690
LeftHand -39.253493 0.000000 48.647038
LeftHandThumb1 -26.253704 0.000000 33.147579
RightShoulder -21.425487 17.875173 -43.211874
RightArm -16.270466 11.291092 17.474543
RightForeArm -13.827791 0.000000 15.044579
RightHand -16.971916 -0.000000 -24.078798
RightHandThumb1 -24.326973 -0.000000 -32.862282
LeftUpLeg -125.087928 42.014129 3.561968
LeftLeg 97.161494 -0.000000 -0.000000
LeftFoot -17.980898 -21.389996 -16.847991
LeftToeBase -0.058076 -0.000000 0.000000
RightUpLeg -22.282813 -49.303340 -12.375080
RightLeg 1.568352 -0.000000 -0.000000
RightFoot 3.848852 -13.979274 41.771907
RightToeBase 5.020742 -0.000000 -0.000000
1407
root 5.879226 19.132406 -8.036399 34.449837 32.032031 -20.066787
Spine 16.518985 -12.133152 -40.379944
Head -38.397131 -2.875117 16.623913
LeftShoulder -1.374732 8.997276 27.864022
LeftArm 15.796380 9.028134 -44.445830
LeftForeArm 3.926336 -0.000000 21.773303
LeftHand -39.078954 -0.000000 49.138393
LeftHandThumb1 -26.253704 0.000000 33.147579
RightShoulder -21.372351 17.965613 -43.470575
RightArm -16.463365 11.333287 17.055198
RightForeArm -13.742853 0.000000 15.248569
RightHand -17.075873 -0.000000 -24.284499
RightHandThumb1 -24.326973 -0.000000 -32.862282
LeftUpLeg -125.069943 42.158292 3.694880
LeftLeg 97.250365 -0.000000 -0.000000
LeftFoot -17.974370 -21.442906 -16.732033
LeftToeBase -0.033770 -0.000000 0.000000
RightUpLeg -21.975266 -49.116764 -12.454047
RightLeg 1.661138 -0.000000 -0.000000
RightFoot 3.710220 -13.969480 41.847784
RightToeBase 5.004029 -0.000000 -0.000000
1408
root 5.880994 19.114947 -8.005262 34.165536 32.077250 -20.288895
Spine 16.511467 -12.119545 -40.577974
Head -38.020761 -3.402900 16.371987
LeftShoulder -1.508534 8.972737 27.873719
LeftArm 15.562239 8.833304 -44.476102
LeftForeArm 4.703454 -0.000000 21.908303
LeftHand -39.251188 -0.000000 49.712826
LeftHandThumb1 -26.253704 0.000000 33.147579
RightShoulder -21.327580 18.056739 -43.702057
RightArm -16.456876 11.314396 16.735744
RightForeArm -13.656560 0.000000 15.338596
RightHand -17.218293 -0.000000 -24.740155
RightHandThumb1 -24.326973 -0.000000 -32.862282
LeftUpLeg -125.052635 42.290288 3.817602
LeftLeg 97.388599 -0.000000 -0.000000
LeftFoot -17.983871 -21.403575 -16.694678
LeftToeBase 0.069521 -0.000000 -0.000000
RightUpLeg -21.670536 -48.947820 -12.531935
RightLeg 1.753147 -0.000000 -0.000000
RightFoot 3.590145 -13.979708 41.954947
RightToeBase 5.023639 -0.000000 -0.000000
1409
root 5.884851 19.096782 -7.979695 33.884350 32.077826 -20.511844
Spine 16.468535 -12.032121 -40.777439
Head -37.651879 -3.943215 16.158299
LeftShoulder -1.618272 8.931985 27.914936
LeftArm 15.329191 8.828537 -44.431035
LeftForeArm 5.171995 -0.000000 22.130514
LeftHand -39.387342 -0.000000 50.809600
LeftHandThumb1 -26.253704 0.000000 33.147579
RightShoulder -21.355479 18.120443 -43.905607
RightArm -16.316644 11.330420 16.415524
RightForeArm -13.509489 -0.000000 15.341253
RightHand -17.407216 -0.000000 -25.156912
RightHandThumb1 -24.326973 -0.000000 -32.862282
LeftUpLeg -124.990257 42.465235 3.983068
LeftLeg 97.542860 -0.000000 -0.000000
LeftFoot -17.982518 -21.443978 -16.669419
LeftToeBase 0.034441 -0.000000 -0.000000
RightUpLeg -21.374585 -48.657676 -12.657673
RightLeg 1.859499 -0.000000 -0.000000
RightFoot 3.434818 -14.044140 42.029778
RightToeBase 5.019497 -0.000000 -0.000000
1410
root 5.890462 19.077803 -7.954908 33.573651 32.068435 -20.770231
Spine 16.401064 -11.884637 -40.935994
Head -37.227089 -4.476111 15.956700
LeftShoulder -1.596008 9.025610 27.994835
LeftArm 15.127056 8.689219 -44.430311
LeftForeArm 5.662250 -0.000000 22.260522
LeftHand -39.509988 0.000000 51.598478
LeftHandThumb1 -26.253704 0.000000 33.147579
RightShoulder -21.409056 18.284522 -44.063798
RightArm -16.125306 11.119790 16.033867
RightForeArm -13.322139 0.000000 15.240359
RightHand -17.506320 0.000000 -25.315401
RightHandThumb1 -24.326973 -0.000000 -32.862282
LeftUpLeg -124.903287 42.671873 4.205387
LeftLeg 97.674658 -0.000000 -0.000000
LeftFoot -17.965704 -21.523136 -16.617666
LeftToeBase 0.005239 -0.000000 -0.000000
RightUpLeg -21.074240 -48.361544 -12.758573
RightLeg 1.945190 -0.000000 -0.000000
RightFoot 3.298942 -14.105339 42.129705
RightToeBase 5.035804 -0.000000 -0.000000
1411
root 5.899524 19.056638 -7.930675 33.252185 32.038306 -21.025779
Spine 16.319963 -11.752388 -41.068815
Head -36.781286 -4.974951 15.671190
LeftShoulder -1.620336 9.186811 27.973283
LeftArm 14.991244 8.719188 -44.238963
LeftForeArm 5.723583 -0.000000 22.395064
LeftHand -39.596154 -0.000000 52.067552
LeftHandThumb1 -26.253704 0.000000 33.147579
RightShoulder -21.429474 18.422293 -44.318685
RightArm -15.997149 11.051253 15.748637
RightForeArm -13.225180 -0.000000 15.219106
RightHand -17.645738 0.000000 -25.235997
RightHandThumb1 -24.326973 -0.000000 -32.862282
LeftUpLeg -124.758111 42.922747 4.494583
LeftLeg 97.825366 -0.000000 -0.000000
LeftFoot -17.909085 -21.771805 -16.557445
LeftToeBase -0.068888 -0.000000 0.000000
RightUpLeg -20.772450 -48.096748 -12.861834
RightLeg 2.009584 -0.000000 -0.000000
RightFoot 3.217672 -14.150237 42.221687
RightToeBase 5.045488 -0.000000 -0.000000
